# xmcd
#
# Track frame offsets:
#	150
#	5215
#	10230
#	12917
#	15560
#	20487
#	25385
#	28120
#	30785
#	35880
#	40975
#	43817
#	46630
#	51707
#	56795
#	59605
#	62427
#	67377
#	72330
#	75102
#	77875
#	82902
#	87917
#	92957
#	95722
#	98455
#	101200
#	106237
#	111270
#	114022
#	116785
#	121707
#	126610
#	129312
#	132027
#	137090
#	142147
#	144862
#	147570
#	152595
#	157607
#	160315
#	163037
#	168070
#	173125
#	175857
#	178582
#	183570
#	188555
#	191222
#	193845
#	198862
#	203795
#	206500
#	209190
#	214160
#	219110
#	221825
#	224535
#	229440
#	234315
#	236887
#
# Disc length: 3188 seconds
#
# Revision: 1
# Processed by: cddbd v1.5.1PL0 Copyright (c) Steve Scherf et al.
# Submitted via: audiograbber 1.82.00
#
DISCID=8b0c723e
DTITLE=TM Century - MegaMusic - 511 - Country
DYEAR=1900
DGENRE=
TTITLE0=9028-Ridin' The Rail - Full Mix
TTITLE1=9028-Ridin' The Rail - Rhythm Mix
TTITLE2=9028-Ridin' The Rail - Full Mix-Edit
TTITLE3=9028-Ridin' The Rail - Rhythm Mix-Edit
TTITLE4=9029-Southern Sensation - Full Mix
TTITLE5=9029-Southern Sensation - Rhythm Mix
TTITLE6=9029-Southern Sensation - Full Mix-Edit
TTITLE7=9029-Southern Sensation - Rhythm Mix-Edit
TTITLE8=9030-Rope To Win - Full Mix
TTITLE9=9030-Rope To Win - Rhythm Mix
TTITLE10=9030-Rope To Win - Full Mix-Edit
TTITLE11=9030-Rope To Win - Rhythm Mix-Edit
TTITLE12=9031-Slip and Slide - Full Mix
TTITLE13=9031-Slip and Slide - Rhythm Mix
TTITLE14=9031-Slip and Slide - Full Mix-Edit
TTITLE15=9031-Slip and Slide - Rhythm Mix-Edit
TTITLE16=9032-Rocky Mountain Rodeo - Full Mix
TTITLE17=9032-Rocky Mountain Rodeo - Rhythm Mix
TTITLE18=9032-Rocky Mountain Rodeo - Full Mix-Edit
TTITLE19=9032-Rocky Mountain Rodeo - Rhythm Mix-Edit
TTITLE20=9033-Blue Eyes - Full Mix
TTITLE21=9033-Blue Eyes - Rhythm Mix
TTITLE22=9033-Blue Eyes - Alt Rhythm Mix
TTITLE23=9033-Blue Eyes - Full Mix-Edit
TTITLE24=9033-Blue Eyes - Rhythm Mix-Edit
TTITLE25=9033-Blue Eyes - Alt Rhythm Mix-Edit
TTITLE26=9034-Farm To Market - Full Mix
TTITLE27=9034-Farm To Market - Rhythm Mix
TTITLE28=9034-Farm To Market - Full Mix-Edit
TTITLE29=9034-Farm To Market - Rhythm Mix-Edit
TTITLE30=9035-Cow Puncher - Full Mix
TTITLE31=9035-Cow Puncher - Rhythm Mix
TTITLE32=9035-Cow Puncher - Full Mix-Edit
TTITLE33=9035-Cow Puncher - Rhythm Mix-Edit
TTITLE34=9036-Music Row - Full Mix
TTITLE35=9036-Music Row - Rhythm Mix
TTITLE36=9036-Music Row - Full Mix-Edit
TTITLE37=9036-Music Row - Rhythm Mix-Edit
TTITLE38=9037-Funky Cow - Full Mix
TTITLE39=9037-Funky Cow - Rhythm Mix
TTITLE40=9037-Funky Cow - Full Mix-Edit
TTITLE41=9037-Funky Cow - Rhythm Mix-Edit
TTITLE42=9038-Don't Wait On Me - Full Mix
TTITLE43=9038-Don't Wait On Me - Rhythm Mix
TTITLE44=9038-Don't Wait On Me - Full Mix-Edit
TTITLE45=9038-Don't Wait On Me - Rhythm Mix-Edit
TTITLE46=9039-Hayseed - Full Mix
TTITLE47=9039-Hayseed - Rhythm Mix
TTITLE48=9039-Hayseed - Full Mix-Edit
TTITLE49=9039-Hayseed - Rhythm Mix-Edit
TTITLE50=9040-Highway 1289 - Full Mix
TTITLE51=9040-Highway 1289 - Rhythm Mix
TTITLE52=9040-Highway 1289 - Full Mix-Edit
TTITLE53=9040-Highway 1289 - Rhythm Mix-Edit
TTITLE54=9041-The Spread - Full Mix
TTITLE55=9041-The Spread - Rhythm Mix
TTITLE56=9041-The Spread - Full Mix-Edit
TTITLE57=9041-The Spread - Rhythm Mix-Edit
TTITLE58=9042-Angie's Waltz - Full Mix
TTITLE59=9042-Angie's Waltz - Rhythm Mix
TTITLE60=9042-Angie's Waltz - Full Mix-Edit
TTITLE61=9042-Angie's Waltz - Rhythm Mix-Edit
EXTD=
EXTT0=
EXTT1=
EXTT2=
EXTT3=
EXTT4=
EXTT5=
EXTT6=
EXTT7=
EXTT8=
EXTT9=
EXTT10=
EXTT11=
EXTT12=
EXTT13=
EXTT14=
EXTT15=
EXTT16=
EXTT17=
EXTT18=
EXTT19=
EXTT20=
EXTT21=
EXTT22=
EXTT23=
EXTT24=
EXTT25=
EXTT26=
EXTT27=
EXTT28=
EXTT29=
EXTT30=
EXTT31=
EXTT32=
EXTT33=
EXTT34=
EXTT35=
EXTT36=
EXTT37=
EXTT38=
EXTT39=
EXTT40=
EXTT41=
EXTT42=
EXTT43=
EXTT44=
EXTT45=
EXTT46=
EXTT47=
EXTT48=
EXTT49=
EXTT50=
EXTT51=
EXTT52=
EXTT53=
EXTT54=
EXTT55=
EXTT56=
EXTT57=
EXTT58=
EXTT59=
EXTT60=
EXTT61=
PLAYORDER=
